<?xml version="1.0" encoding="UTF-8"?>
<svg id="Camada_1" xmlns="http://www.w3.org/2000/svg" version="1.1" viewBox="0 0 1000 610.31">
  <!-- Generator: Adobe Illustrator 29.1.0, SVG Export Plug-In . SVG Version: 2.1.0 Build 142)  -->
  <defs>
    <style>
      .st0 {
        fill: #ffc107;
      }

      .st1 {
        fill: #fff;
      }
    </style>
  </defs>
  <path class="st1" d="M449.34,50.33v72.15c-14.62-23.75-35.48-42.93-62.57-57.54-27.1-14.61-58.61-21.92-94.53-21.92-42.01,0-80.07,10.66-114.17,31.97-34.11,21.32-61.05,51.76-80.83,91.33-19.8,39.59-29.69,85.56-29.69,137.92s9.89,98.5,29.69,138.38c19.78,39.89,46.72,70.64,80.83,92.25,34.09,21.62,71.84,32.43,113.26,32.43,35.92,0,67.43-7.31,94.53-21.92,27.09-14.62,48.25-33.8,63.48-57.54v72.15h156.18V50.33h-156.18ZM416.92,397.4c-21.62,22.54-47.96,33.79-79.01,33.79s-57.4-11.42-79.01-34.25c-21.62-22.83-32.42-53.73-32.42-92.71s10.8-69.56,32.42-91.79c21.61-22.22,47.95-33.34,79.01-33.34s57.38,11.28,79.01,33.79c21.6,22.54,32.42,53.29,32.42,92.25s-10.82,69.73-32.42,92.25Z"/>
  <path class="st0" d="M763.09,228.98V49.55h-157.67v179.43h-175.86c13.16,20.4,19.77,45.78,19.77,76.18s-6.82,56.58-20.39,77.13v.05h0,0s176.47,0,176.47,0v178.43h157.67v-178.43h169.35v-153.36h-169.35Z"/>
</svg>